# xmcd
#
# Track frame offsets: 
#        150
#        14835
#        33737
#        51048
#        67555
#        85633
#        99516
#        117856
#        135840
#        152598
#
# Disc length: 2312 seconds
#
# Revision: 7
# Processed by: cddbd v1.4PL0 Copyright (c) Steve Scherf et al.
# Submitted via: ExactAudioCopy v0.90b4
#
DISCID=7009060a
DTITLE=Chely Wright - Single White Female
DYEAR=1999
DGENRE=Country
TTITLE0=Single White Female
TTITLE1=She Went Out For Cigarettes
TTITLE2=It Was
TTITLE3=Unknown
TTITLE4=The Love That We Lost
TTITLE5=The Fire
TTITLE6=Picket Fences
TTITLE7=Some Kind Of Somethin'
TTITLE8=Rubbin' It In
TTITLE9=Why Do I Still Want You
EXTD=
EXTT0=
EXTT1=
EXTT2=
EXTT3=
EXTT4=
EXTT5=
EXTT6=
EXTT7=
EXTT8=
EXTT9=
PLAYORDER=
